<svg width="71" height="71" viewBox="0 0 71 71" fill="none" xmlns="http://www.w3.org/2000/svg">
<path fill-rule="evenodd" clip-rule="evenodd" d="M38.6473 11.267H32.874C32.2422 11.267 31.7289 11.7803 31.7289 12.4122V16.5741C29.458 17.0649 27.2714 17.978 25.3155 19.254L22.402 16.318C22.1873 16.1017 21.8944 15.9796 21.5892 15.9796C21.284 15.9796 20.9915 16.1017 20.7763 16.318L16.6946 20.4324C16.2519 20.8792 16.2519 21.5995 16.6946 22.0453L19.6184 24.992C18.3485 26.9669 17.439 29.1754 16.9523 31.4683L12.8333 31.4683C12.2014 31.4683 11.6881 31.9816 11.6881 32.6134L11.6871 38.4322C11.6871 39.0641 12.2004 39.5773 12.8322 39.5773H16.9513C17.4385 41.8698 18.3474 44.0783 19.6173 46.0536L16.6936 49.0003C16.2508 49.4471 16.2508 50.1675 16.6936 50.6132L20.7753 54.7276C21.2052 55.1611 21.9715 55.1611 22.4015 54.7276L25.315 51.7916C27.2715 53.0671 29.4574 53.9807 31.7284 54.4715V58.6334C31.7284 59.2653 32.2417 59.7786 32.8735 59.7786L38.6468 59.7786C39.2786 59.7786 39.7919 59.2653 39.7919 58.6335V54.4715C42.0629 53.9808 44.2494 53.0677 46.2053 51.7916L49.1188 54.7277C49.5487 55.1612 50.3151 55.1612 50.745 54.7277L54.8267 50.6132C55.2695 50.1664 55.2695 49.4461 54.8267 49.0003L51.903 46.0536C53.1729 44.0782 54.0823 41.8702 54.569 39.5774L58.6881 39.5773C59.32 39.5773 59.8332 39.0641 59.8332 38.4322V32.6129C59.8332 31.981 59.32 31.4677 58.6881 31.4677L54.5691 31.4678C54.0819 29.1745 53.1729 26.9669 51.9031 24.9916L54.8268 22.0448C55.2695 21.598 55.2695 20.8777 54.8268 20.4319L50.7451 16.3175C50.3152 15.884 49.5488 15.884 49.1189 16.3175L46.2054 19.2535C44.2489 17.978 42.0629 17.0644 39.792 16.5736V12.4117C39.7925 11.7803 39.2798 11.267 38.6474 11.267L38.6473 11.267ZM7.77538 43.4765C7.33673 43.4765 6.91804 43.7301 6.72839 44.1569L5.72051 46.4243C4.45694 43.0364 3.13064 39.0213 3.13064 35.8088C3.13064 17.6683 17.8396 2.90958 35.9198 2.90958C36.3743 2.90958 36.8267 2.91878 37.2777 2.93718C37.9177 2.9617 38.4427 2.47145 38.4688 1.83959C38.4944 1.20773 38.0031 0.674522 37.3712 0.648438C36.8897 0.628998 36.4055 0.619316 35.9198 0.619316V0.619057C16.578 0.619057 0.840345 16.4051 0.840345 35.8086C0.840345 39.3404 2.20207 43.5295 3.51212 47.0572L1.66526 46.1164C1.10241 45.8306 0.412231 46.0535 0.124869 46.6174C-0.161938 47.1808 0.0619871 47.8704 0.62588 48.1578L5.12011 50.4471C5.40076 50.5897 5.7264 50.6112 6.02241 50.5059C6.31842 50.4011 6.5587 50.1787 6.68599 49.8919L8.82081 45.0879C9.07793 44.5097 8.81724 43.8333 8.23955 43.5762C8.08875 43.5076 7.93126 43.4765 7.77534 43.4765H7.77538ZM49.2625 0C49.1056 0 48.9466 0.0327148 48.7947 0.100716L44.2071 2.15808C43.9117 2.28577 43.6716 2.53648 43.5679 2.86755C43.4602 3.21319 43.5244 3.57171 43.7126 3.85039L46.4293 8.07804C46.7718 8.60973 47.4793 8.7641 48.012 8.42261C48.5437 8.0806 48.6986 7.37254 48.3566 6.83981L47.468 5.45742C59.9496 10.7332 68.7097 23.0183 68.7097 35.8101C68.7097 39.879 67.9786 43.8497 66.5375 47.6128C66.3115 48.2033 66.607 48.8659 67.1969 49.0918C67.7869 49.3188 68.45 49.0223 68.6759 48.4323C70.2178 44.4069 71 40.1607 71 35.8111C71 21.9028 61.3674 8.5657 47.728 3.08921L49.7318 2.19077C50.309 1.93208 50.5666 1.2547 50.3079 0.677597C50.1173 0.251747 49.6996 0.000221252 49.2625 0.000221252L49.2625 0ZM65.5446 52.6233H60.1537C59.5219 52.6233 59.0086 53.1366 59.0086 53.7685C59.0086 54.4003 59.5219 54.9136 60.1537 54.9136H63.3227C56.942 63.2383 46.2023 68.7091 35.9208 68.7091C25.7091 68.7091 16.2583 64.0584 9.99207 55.9499C9.60506 55.4494 8.88576 55.3584 8.38587 55.7443C7.88485 56.1308 7.79337 56.8501 8.17986 57.3511C14.8826 66.0245 24.9933 71 35.92 71C46.4824 71 57.4945 65.5936 64.3706 57.2717L64.3581 58.8158C64.353 59.4476 64.8611 59.965 65.494 59.9701C66.1003 59.9752 66.6433 59.4671 66.6484 58.8342L66.689 53.814C66.6986 53.5625 66.6252 53.3119 66.4772 53.1042L66.4758 53.1022L66.4676 53.0907L66.4658 53.0883L66.4637 53.0855L66.4489 53.0661L66.4488 53.0658C66.4204 53.0293 66.3898 52.9943 66.357 52.9611C66.1422 52.7449 65.8498 52.6232 65.5446 52.6232L65.5446 52.6233ZM35.7615 25.8255C30.4515 25.8255 26.1316 30.176 26.1316 35.5225C26.1316 40.8698 30.4515 45.22 35.7615 45.22C41.0716 45.22 45.3915 40.8695 45.3915 35.5225C45.3915 30.176 41.0716 25.8255 35.7615 25.8255ZM35.7615 42.9308C31.7142 42.9308 28.4219 39.6082 28.4219 35.5236C28.4219 31.4394 31.7142 28.1169 35.7615 28.1169C39.809 28.1169 43.1012 31.4394 43.1012 35.5236C43.1012 39.6077 39.8084 42.9308 35.7615 42.9308ZM34.0192 13.5573H37.5022V17.5229C37.5022 18.0848 37.9096 18.5638 38.4648 18.6538C41.0475 19.0709 43.5397 20.1128 45.6706 21.6654C46.1277 21.9982 46.759 21.9482 47.1583 21.5463L49.9332 18.7499L52.4018 21.2386L49.6136 24.0479C49.2194 24.4445 49.1703 25.0678 49.496 25.5218C51.0378 27.671 52.0722 30.1863 52.4871 32.793C52.5751 33.3492 53.0551 33.7582 53.618 33.7582L57.5437 33.7583V37.2873L53.618 37.2872C53.0551 37.2872 52.5751 37.6967 52.4871 38.2524C52.0725 40.8592 51.0378 43.3729 49.496 45.5237C49.1704 45.9776 49.22 46.6008 49.6136 46.9976L52.4008 49.8073L49.9321 52.296L47.1572 49.4996C46.7585 49.0973 46.1266 49.0467 45.6696 49.3805C43.5383 50.9331 41.0466 51.975 38.4638 52.3922C37.9091 52.4822 37.5011 52.9607 37.5011 53.523V57.4887L34.0181 57.4887V53.5231C34.0181 52.9612 33.6107 52.4822 33.0555 52.3922C30.4729 51.9751 27.9806 50.9332 25.8497 49.3806C25.3932 49.0472 24.7613 49.0974 24.3621 49.4997L21.5872 52.2961L19.1185 49.8074L21.9057 46.9976C22.2999 46.6009 22.349 45.9777 22.0233 45.5237C20.4814 43.3735 19.4466 40.8592 19.0322 38.2524C18.9442 37.6962 18.4642 37.2873 17.9013 37.2873L13.9756 37.2872V33.7582L17.9013 33.7583C18.4642 33.7583 18.9442 33.3488 19.0322 32.7931C19.4473 30.1863 20.4815 27.6721 22.0233 25.5218C22.3489 25.0678 22.2993 24.4447 21.9057 24.0479L19.1185 21.2381L21.5872 18.7494L24.3621 21.5458C24.7614 21.9472 25.3927 21.9978 25.8497 21.665C27.981 20.1124 30.4727 19.0705 33.0555 18.6533C33.6102 18.5633 34.0181 18.0848 34.0181 17.5224L34.0187 13.5573L34.0192 13.5573Z" fill="#15274D"/>
</svg>
