<svg width="85" height="84" viewBox="0 0 85 84" fill="none" xmlns="http://www.w3.org/2000/svg">
<path fill-rule="evenodd" clip-rule="evenodd" d="M78.231 21.654H82.7852V16.3848H78.231V21.654ZM82.7852 23.8662H78.231V63.7475L80.4276 72.677L82.7853 63.7272V23.8662H82.7852ZM33.9567 77.4629C33.9567 76.0149 36.1533 76.0149 36.1533 77.4629V79.2528C36.1533 80.7009 33.9567 80.7009 33.9567 79.2528V77.4629ZM10.5006 77.4629C10.5006 76.0149 12.6972 76.0149 12.6972 77.4629V79.2528C12.6972 80.7009 10.5006 80.7009 10.5006 79.2528V77.4629ZM16.385 77.4629C16.385 76.0149 18.5816 76.0149 18.5816 77.4629V79.2528C18.5816 80.7009 16.385 80.7009 16.385 79.2528V77.4629ZM22.2291 77.4629C22.2291 76.0149 24.4256 76.0149 24.4256 77.4629V79.2528C24.4256 80.7009 22.2291 80.7009 22.2291 79.2528V77.4629ZM28.0932 77.4629C28.0932 76.0149 30.3099 76.0149 30.3099 77.4629V79.2528C30.3099 80.7009 28.0932 80.7009 28.0932 79.2528V77.4629ZM5.05894 50.534C3.60802 50.534 3.60802 48.3418 5.05894 48.3418H6.83236C8.28321 48.3418 8.28321 50.534 6.83236 50.534H5.05894ZM5.05894 73.9232C3.60802 73.9232 3.60802 71.731 5.05894 71.731H6.83236C8.28321 71.731 8.28321 73.9232 6.83236 73.9232H5.05894ZM5.05894 68.0908C3.60802 68.0908 3.60802 65.8986 5.05894 65.8986H6.83236C8.28321 65.8986 8.28321 68.0908 6.83236 68.0908H5.05894ZM5.05894 62.2384C3.60802 62.2384 3.60802 60.0261 5.05894 60.0261H6.83236C8.28321 60.0261 8.28321 62.2384 6.83236 62.2384H5.05894ZM5.05894 56.3859C3.60802 56.3859 3.60802 54.1937 5.05894 54.1937H6.83236C8.28321 54.1937 8.28321 56.3859 6.83236 56.3859H5.05894ZM1.10907 42.8509H11.064C11.6686 42.8509 12.1724 43.3335 12.1724 43.957V72.0536H40.1019C40.7064 72.0536 41.2103 72.5362 41.2103 73.1598V82.8938C41.2103 83.4972 40.7267 84 40.1019 84H1.10843C0.503845 84 0 83.5173 0 82.8938V43.9374C0 43.3341 0.503845 42.8514 1.10843 42.8514L1.109 42.8509L1.10907 42.8509ZM9.95575 45.0431H2.2175V81.7672L39.0148 81.7671V74.2252H11.065C10.4604 74.2252 9.95653 73.7426 9.95653 73.1191L9.95575 45.0431ZM30.9339 22.5787L54.1891 9.16426C55.4386 8.44017 56.5268 10.3508 55.2773 11.0749L33.1109 23.8458L44.0734 30.1609L68.1744 16.2638L65.1315 14.5141C63.8821 13.79 64.9904 11.8796 66.2399 12.6034L70.9151 15.2984C71.2577 15.4994 71.4592 15.8615 71.4592 16.2436V20.3262C71.4592 21.7743 69.2626 21.7743 69.2626 20.3262V18.1341L45.1616 32.0311V35.9528C45.1616 37.4009 42.965 37.4009 42.965 35.9528V32.0311L18.864 18.1341V20.2659C18.864 21.7139 16.6674 21.7139 16.6674 20.2659V16.2236C16.6674 15.7811 16.9093 15.399 17.292 15.2381L21.9068 12.5833C23.1562 11.8592 24.2646 13.7699 23.0152 14.494L19.9722 16.2437L30.9339 22.5788V22.5787ZM42.9846 39.6133C42.9846 38.1654 45.1811 38.1654 45.1811 39.6133V44.1183C45.1811 45.5664 42.9846 45.5664 42.9846 44.1183V39.6133ZM42.9846 47.7786C42.9846 46.3306 45.1811 46.3306 45.1811 47.7786V52.2837C45.1811 53.7316 42.9846 53.7316 42.9846 52.2837V47.7786ZM42.9846 55.944C42.9846 54.4959 45.1811 54.4959 45.1811 55.944V59.8456L46.7933 58.9004C48.0427 58.1763 49.1511 60.0869 47.9016 60.811L44.6974 62.6612C44.2944 62.9025 43.8712 62.9025 43.4682 62.6612L40.2439 60.811C38.9946 60.087 40.1029 58.1764 41.3523 58.9004L42.9846 59.8456V55.944H42.9846ZM26.037 12.764C24.7876 13.488 23.6792 11.5774 24.9286 10.8735L29.221 8.39984C30.4704 7.67575 31.5788 9.58637 30.3294 10.3105L26.037 12.764V12.764ZM33.3721 8.5405C32.1228 9.26459 31.0143 7.35397 32.2638 6.65005L43.5287 0.154051C43.9115 -0.0671237 44.3549 -0.0470296 44.6975 0.19431L55.8817 6.65005C57.1312 7.37413 56.043 9.26459 54.7936 8.5405L44.0931 2.36629L33.3721 8.5405ZM57.8361 10.2902C56.5867 9.56614 57.695 7.65559 58.9445 8.37954L63.2369 10.8532C64.4862 11.5772 63.3981 13.4678 62.1284 12.7436L57.8361 10.2901V10.2902ZM69.3023 24.2476C69.3023 22.7996 71.4989 22.7996 71.4989 24.2476V29.6174C71.4989 31.0654 69.3023 31.0654 69.3023 29.6174V24.2476ZM69.3023 33.5392C69.3023 32.0911 71.4989 32.0911 71.4989 33.5392V38.909C71.4989 40.3569 69.3023 40.3569 69.3023 38.909V33.5392ZM69.3023 42.8107C69.3023 41.3627 71.4989 41.3627 71.4989 42.8107V46.5916C71.4989 47.0341 71.2369 47.396 70.8742 47.5771L66.2796 50.2319C65.0301 50.9559 63.9218 49.0453 65.1711 48.3414L69.3023 45.9683V42.8107ZM62.1283 50.0709C63.3777 49.3469 64.466 51.2575 63.2164 51.9816L58.9442 54.4552C57.6948 55.1793 56.5864 53.2686 57.856 52.5648L62.1283 50.0709ZM54.7931 54.2943C56.0426 53.5703 57.1509 55.4809 55.8814 56.205L51.3069 58.8396C50.0575 59.5637 48.9491 57.6531 50.2187 56.9491L54.7931 54.2943ZM37.9664 56.9491C39.2159 57.6732 38.1277 59.5637 36.8783 58.8396L32.2836 56.205C31.0341 55.4809 32.1223 53.5905 33.3717 54.2943L37.9664 56.9491ZM30.3289 52.5448C31.5784 53.2688 30.4901 55.1593 29.2408 54.4351L24.9484 51.9615C23.699 51.2374 24.7872 49.347 26.0366 50.0508L30.3289 52.5448ZM23.0138 48.3213C24.2633 49.0454 23.155 50.9358 21.9055 50.2117L17.2102 47.5168C16.8675 47.3157 16.666 46.9336 16.666 46.5716V42.7907C16.666 41.3427 18.8626 41.3427 18.8626 42.7907V45.928L23.0138 48.3213ZM18.8828 38.8888C18.8828 40.3369 16.6862 40.3369 16.6862 38.8888V33.5391C16.6862 32.0911 18.8828 32.0911 18.8828 33.5391V38.8888ZM18.8828 29.6174C18.8828 31.0654 16.6862 31.0654 16.6862 29.6174V24.2476C16.6862 22.7996 18.8828 22.7996 18.8828 24.2476V29.6174ZM77.1206 14.1918H83.8916C84.4962 14.1918 85 14.6744 85 15.2979V63.8674C85 63.9679 85 64.0484 84.9597 64.149L81.4534 77.4025C81.1712 78.5087 79.5792 78.4885 79.3173 77.4025C78.9746 76.0147 76.0122 64.2093 76.0122 63.8675V15.2778C76.0122 14.6744 76.516 14.1917 77.1206 14.1917L77.1207 14.1918H77.1206Z" fill="#15274D"/>
</svg>
