<svg width="64" height="63" viewBox="0 0 64 63" fill="none" xmlns="http://www.w3.org/2000/svg">
<path fill-rule="evenodd" clip-rule="evenodd" d="M62.6193 0H59.9825C53.3935 0.0186555 46.9212 1.73496 41.199 4.98101C35.4767 8.22697 30.6986 12.8922 27.3315 18.5211C26.8759 19.2896 26.4686 20.037 26.0891 20.7915L12.8626 19.8245C12.4625 19.7953 12.069 19.9403 11.7855 20.2221L0.437238 31.4856C0.025079 31.8688 -0.110735 32.4631 0.0944145 32.9856C0.299564 33.5086 0.804685 33.854 1.36903 33.8588L16.6874 34.3459L18.2475 35.8962C15.3763 37.1355 12.9327 39.1805 11.2155 41.781C9.49839 44.382 8.58347 47.4242 8.58311 50.5344V51.9612C8.58311 52.3249 8.72853 52.6741 8.9876 52.9311C9.24662 53.1885 9.59765 53.333 9.9636 53.333H11.3994C14.5268 53.3244 17.584 52.4114 20.1981 50.7067C22.8127 49.0013 24.8712 46.5774 26.1236 43.73L28.8845 46.4735L29.3333 61.6673C29.3491 62.2142 29.6905 62.6993 30.2019 62.9022C30.7133 63.1051 31.2969 62.9864 31.6874 62.6003L42.9807 51.344C43.2624 51.0636 43.4083 50.6761 43.3809 50.2808L42.532 37.9337C43.664 37.3916 44.7893 36.7816 45.8867 36.116C51.4346 32.7671 56.0178 28.0507 59.1909 22.4239C62.3645 16.7965 64.021 10.4505 63.9998 4.00007V1.37275C63.9998 1.00911 63.8544 0.659791 63.5953 0.40285C63.3363 0.145414 62.9852 0.000946292 62.6188 0.000946292L62.6193 0ZM44.4436 12.9644C42.3061 12.9907 40.3214 14.0696 39.1456 15.8434C37.9702 17.617 37.7563 19.855 38.5759 21.8168C39.395 23.7786 41.1405 25.2087 43.2346 25.6341C45.3286 26.0595 47.4989 25.4245 49.0271 23.9393C50.2607 22.7407 50.9589 21.0995 50.9648 19.3846C50.9706 17.6697 50.2834 16.0241 49.0574 14.8175C47.831 13.6103 46.1694 12.9428 44.4436 12.9644ZM47.0461 21.9502C46.2377 22.754 45.0984 23.1387 43.9645 22.9908C42.8305 22.8425 41.83 22.1789 41.2579 21.1946C40.6854 20.2104 40.6064 19.018 41.0436 17.9677C41.4814 16.9175 42.3852 16.1289 43.4897 15.8347C44.5949 15.54 45.7745 15.7725 46.6821 16.4644C47.5898 17.1558 48.1224 18.2276 48.1229 19.364C48.1373 20.3391 47.7593 21.2799 47.0737 21.9775L47.0461 21.9502ZM11.4277 50.5949H11.3724V50.5399C11.37 47.7781 12.2381 45.0848 13.8551 42.8383C15.472 40.5913 17.7563 38.9048 20.3878 38.0148L24.0256 41.6297C23.1261 44.2412 21.4289 46.5088 19.1705 48.1155C16.9122 49.7227 14.2051 50.5898 11.4277 50.5949ZM61.2388 3.99808C61.259 9.97856 59.7234 15.863 56.7804 21.0807C53.8379 26.298 49.5885 30.6709 44.4439 33.7757C43.1813 34.5427 41.8716 35.2298 40.5228 35.8336C39.9845 36.0714 39.6576 36.6222 39.7081 37.2055L40.5777 49.8612L32.0183 58.3806L31.6523 45.8411C31.6437 45.4909 31.5006 45.1569 31.2522 44.9086L18.2536 32.0189C18.0052 31.7738 17.672 31.6313 17.3219 31.6213L4.64145 31.2165L13.2904 22.6215L26.8276 23.5885C27.4097 23.6426 27.9625 23.3268 28.2086 22.8C28.6573 21.8397 29.161 20.8933 29.7413 19.9124C32.8653 14.6989 37.2957 10.3777 42.6 7.37247C47.9043 4.36727 53.903 2.77903 60.009 2.76322L61.2652 2.76326L61.2388 3.99808Z" fill="#15274D"/>
</svg>
