<svg width="163" height="120" viewBox="0 0 163 120" fill="none" xmlns="http://www.w3.org/2000/svg">
<path d="M72.1925 67.9066L66.7645 75.522H102.115L83.1967 48.2301C83.1967 48.2301 80.6503 44.9881 77.2499 44.9881C73.8495 44.9881 72.2666 46.873 71.0596 48.456C69.8526 50.0391 51.6876 75.522 51.6876 75.522H63.3711L76.9023 56.6732L85.0054 67.6066L72.1907 67.9083L72.1925 67.9066ZM66.6622 114.497C36.6724 114.688 11.5883 90.248 11.5883 60.2541C11.5883 30.2603 36.6724 5.87875 66.6622 5.87875C88.5753 5.87875 106.88 19.357 115.461 38.0522C106.504 16.0232 85.4678 0 60.2266 0C26.9634 0 0 26.9689 0 60.2365C0 93.5041 27.0199 120 60.2831 120C85.856 120 106.188 104.093 115.083 82.9838C106.673 102.094 86.8653 114.367 66.6622 114.497ZM22.6948 41.9719C22.6948 41.9719 34.6554 9.60438 72.0425 11.2122C105.41 13.4235 114.757 39.9618 114.757 39.9618H104.605C104.605 39.9618 96.7649 21.0901 71.1373 16.3391C35.7089 12.5693 22.6948 41.9719 22.6948 41.9719ZM22.6948 78.5363C22.6948 78.5363 34.6554 110.904 72.0425 109.294C105.41 107.083 114.757 80.5465 114.757 80.5465H104.605C104.605 80.5465 96.7649 99.42 71.1373 104.169C35.7089 107.939 22.6948 78.5363 22.6948 78.5363ZM130.084 45.214V75.5202H139.331V63.9109H155.312L161.392 56.2708H139.282V52.7535H156.919L163 44.9881L130.084 45.214ZM98.376 45.214L92.5968 52.9035H104.958V75.5202H114.355V52.8029H123.501L129.38 45.214H98.3742H98.376Z" fill="#FEFEFE"/>
</svg>
