<svg width="975" height="564" viewBox="0 0 975 564" fill="none" xmlns="http://www.w3.org/2000/svg">
<path d="M906.543 332.085L971 70.2999L3 3V563.5" stroke="white" stroke-width="5"/>
<path d="M74.6827 495.339C73.9156 495.339 73.1795 495.455 72.4468 495.56C72.6842 494.77 72.9284 493.966 73.3205 493.243C73.7126 492.194 74.3249 491.285 74.9338 490.368C75.4428 489.377 76.3406 488.706 77.0011 487.857C77.6924 487.033 78.6349 486.484 79.3814 485.8C80.114 485.084 81.0737 484.726 81.8374 484.222C82.6354 483.769 83.3302 483.268 84.0732 483.03L85.9272 482.274L87.5577 481.602L85.8894 475L83.8359 475.491C83.1789 475.654 82.3774 475.845 81.4659 476.073C80.5337 476.243 79.5396 476.71 78.432 477.136C77.3382 477.62 76.0723 477.947 74.8959 478.724C73.7126 479.466 72.3471 480.086 71.1431 481.081C69.9771 482.107 68.5702 482.996 67.5314 484.301C66.3963 485.52 65.2749 486.801 64.4046 488.259C63.3968 489.649 62.7123 491.176 61.9899 492.685C61.3364 494.194 60.8101 495.737 60.3801 497.236C59.5649 500.241 59.2003 503.096 59.0593 505.539C58.9423 507.985 59.0111 510.019 59.1556 511.49C59.2072 512.185 59.3035 512.86 59.3723 513.327L59.4583 513.899L59.5477 513.879C60.1595 516.709 61.5679 519.31 63.6099 521.381C65.652 523.452 68.2443 524.908 71.0869 525.58C73.9295 526.253 76.9063 526.115 79.6729 525.182C82.4395 524.249 84.8829 522.559 86.7205 520.308C88.558 518.057 89.7146 515.337 90.0564 512.462C90.3982 509.588 89.9113 506.676 88.652 504.064C87.3927 501.451 85.4124 499.246 82.9403 497.702C80.4682 496.158 77.6053 495.338 74.6827 495.339ZM112.52 495.339C111.753 495.339 111.017 495.455 110.284 495.56C110.522 494.77 110.766 493.966 111.158 493.243C111.55 492.194 112.162 491.285 112.771 490.368C113.28 489.377 114.178 488.706 114.838 487.857C115.53 487.033 116.472 486.484 117.219 485.8C117.951 485.084 118.911 484.726 119.675 484.222C120.473 483.769 121.168 483.268 121.911 483.03L123.765 482.274L125.395 481.602L123.727 475L121.673 475.491C121.016 475.654 120.215 475.845 119.303 476.073C118.371 476.243 117.377 476.71 116.269 477.136C115.179 477.623 113.91 477.947 112.733 478.727C111.55 479.47 110.184 480.09 108.981 481.085C107.814 482.11 106.408 482.999 105.369 484.301C104.234 485.52 103.112 486.801 102.242 488.259C101.234 489.649 100.55 491.176 99.8273 492.685C99.1738 494.194 98.6475 495.737 98.2175 497.236C97.4023 500.241 97.0377 503.096 96.8966 505.539C96.7797 507.985 96.8485 510.019 96.9929 511.49C97.0445 512.185 97.1409 512.86 97.2096 513.327L97.2956 513.899L97.3851 513.879C97.9969 516.709 99.4053 519.31 101.447 521.381C103.489 523.452 106.082 524.908 108.924 525.58C111.767 526.253 114.744 526.115 117.51 525.182C120.277 524.249 122.72 522.559 124.558 520.308C126.395 518.057 127.552 515.337 127.894 512.462C128.236 509.588 127.749 506.676 126.489 504.064C125.23 501.451 123.25 499.246 120.778 497.702C118.306 496.158 115.443 495.338 112.52 495.339Z" fill="#A7561C"/>
<path d="M627.683 125.339C626.916 125.339 626.179 125.455 625.447 125.56C625.684 124.77 625.928 123.966 626.321 123.243C626.713 122.194 627.325 121.285 627.934 120.368C628.443 119.377 629.341 118.706 630.001 117.857C630.692 117.033 631.635 116.484 632.381 115.8C633.114 115.084 634.074 114.726 634.837 114.222C635.635 113.769 636.33 113.268 637.073 113.03L638.927 112.274L640.558 111.602L638.889 105L636.836 105.491C636.179 105.654 635.377 105.845 634.466 106.073C633.534 106.243 632.54 106.71 631.432 107.136C630.338 107.62 629.072 107.947 627.896 108.724C626.713 109.466 625.347 110.086 624.143 111.081C622.977 112.107 621.57 112.996 620.531 114.301C619.396 115.52 618.275 116.801 617.405 118.259C616.397 119.649 615.712 121.176 614.99 122.685C614.336 124.194 613.81 125.737 613.38 127.236C612.565 130.241 612.2 133.096 612.059 135.539C611.942 137.985 612.011 140.019 612.156 141.49C612.207 142.185 612.303 142.86 612.372 143.327L612.458 143.899L612.548 143.879C613.16 146.709 614.568 149.31 616.61 151.381C618.652 153.452 621.244 154.908 624.087 155.58C626.929 156.253 629.906 156.115 632.673 155.182C635.44 154.249 637.883 152.559 639.72 150.308C641.558 148.057 642.715 145.337 643.056 142.462C643.398 139.588 642.911 136.676 641.652 134.064C640.393 131.451 638.412 129.246 635.94 127.702C633.468 126.158 630.605 125.338 627.683 125.339ZM665.52 125.339C664.753 125.339 664.017 125.455 663.284 125.56C663.522 124.77 663.766 123.966 664.158 123.243C664.55 122.194 665.162 121.285 665.771 120.368C666.28 119.377 667.178 118.706 667.838 117.857C668.53 117.033 669.472 116.484 670.219 115.8C670.951 115.084 671.911 114.726 672.675 114.222C673.473 113.769 674.168 113.268 674.911 113.03L676.765 112.274L678.395 111.602L676.727 105L674.673 105.491C674.016 105.654 673.215 105.845 672.303 106.073C671.371 106.243 670.377 106.71 669.269 107.136C668.179 107.623 666.91 107.947 665.733 108.727C664.55 109.47 663.184 110.09 661.981 111.085C660.814 112.11 659.408 112.999 658.369 114.301C657.234 115.52 656.112 116.801 655.242 118.259C654.234 119.649 653.55 121.176 652.827 122.685C652.174 124.194 651.647 125.737 651.217 127.236C650.402 130.241 650.038 133.096 649.897 135.539C649.78 137.985 649.848 140.019 649.993 141.49C650.045 142.185 650.141 142.86 650.21 143.327L650.296 143.899L650.385 143.879C650.997 146.709 652.405 149.31 654.447 151.381C656.489 153.452 659.082 154.908 661.924 155.58C664.767 156.253 667.744 156.115 670.51 155.182C673.277 154.249 675.72 152.559 677.558 150.308C679.395 148.057 680.552 145.337 680.894 142.462C681.236 139.588 680.749 136.676 679.489 134.064C678.23 131.451 676.25 129.246 673.778 127.702C671.306 126.158 668.443 125.338 665.52 125.339Z" fill="#A7561C"/>
</svg>
